<?xml version="1.0" standalone="no"?><!DOCTYPE svg PUBLIC "-//W3C//DTD SVG 1.1//EN" "http://www.w3.org/Graphics/SVG/1.1/DTD/svg11.dtd"><svg class="icon" height="512" viewBox="0 0 1024 1024" version="1.1" xmlns="http://www.w3.org/2000/svg"><path d="M848.885398 1024H175.065857C132.463168 1024 97.830203 985.028775 97.830203 937.112936V86.862692C97.830203 38.971225 132.463168 0 175.065857 0h368.118434c7.726003 0 15.110794 3.046531 20.570178 8.45717l353.860668 351.350327c5.483756 5.435011 8.530287 12.771058 8.530287 20.448316V937.112936c-0.024372 47.91584-34.657337 86.887064-77.260026 86.887064zM175.065857 57.810972c-8.99336 0-19.059098 11.942402-19.059098 29.05172V937.112936c0 17.13369 10.065738 29.076092 19.059098 29.076092h673.795169c8.99336 0 19.010353-11.942402 19.010353-29.076092V392.246959L531.120029 57.810972H175.065857z" fill="#E73118" /><path d="M897.020588 401.922742H543.184291a21.764417 21.764417 0 0 1-21.861906-21.691301V28.929858a21.861906 21.861906 0 0 1 37.265167-15.330144l353.885041 351.325955a21.642556 21.642556 0 0 1-15.452005 36.997073z m-331.998762-43.382602h279.257217L565.021826 81.232703v277.307437z" fill="#E73118" /><path d="M228.782292 552.080162H154.520052v313.183387h742.500536v-313.183387H265.901226v-0.438701H228.782292v0.438701z m76.675092 179.915935v77.893704H268.777151v-209.674449h80.794002c23.592336 0 42.310223 6.093062 56.202404 18.303558 13.867809 12.186124 20.8139 28.320552 20.8139 48.378912 0 20.521433-6.799857 36.534-20.375199 47.940212-13.575342 11.406212-32.585696 17.13369-57.055433 17.13369H305.457384v0.024373z m0-29.246698h44.113769c13.039153 0 23.007402-3.046531 29.880376-9.139593 6.872974-6.093062 10.285089-14.891444 10.285089-26.419517 0-11.333095-3.460859-20.350827-10.455695-27.126312-6.946091-6.751113-16.524384-10.236344-28.710508-10.431322H305.457384v73.116744z m153.179579 107.140402v-209.674449h62.34421c18.669142 0 35.217898 4.11891 49.695014 12.381102a84.766679 84.766679 0 0 1 33.536213 35.120409c7.945353 15.183911 11.918029 32.561323 11.91803 52.156611v10.504439c0 19.863382-3.997049 37.338284-11.991146 52.400333s-19.327193 26.687612-34.072403 34.876687c-14.720838 8.140331-31.635178 12.210496-50.669904 12.210496h-60.760014v0.024372z m36.680233-180.281518v151.205426h23.909176c19.254076 0 34.023658-5.971201 44.308746-17.913602 10.309461-11.966774 15.549494-29.124836 15.744473-51.49856v-11.674307c0-22.76368-4.996311-40.11672-14.964561-52.132238-9.943877-11.991146-24.39662-17.986719-43.358229-17.986719h-25.639605z m278.989123 91.444674h-84.937284v88.836844h-36.728978v-209.674449h134.144853v29.392931h-97.415875v62.34421h84.937284v29.100464z" fill="#E73118" /></svg>